HIERARCHY
ROOT newVegas:Hips
{
	OFFSET 0.000000 96.479958 0.000000
	CHANNELS 6 Xposition Yposition Zposition Xrotation Yrotation Zrotation
	JOINT newVegas:Pelvis
	{
		OFFSET 0.000000 0.000000 0.000000
		CHANNELS 3 Xrotation Yrotation Zrotation
		JOINT newVegas:LeftUpLeg
		{
			OFFSET 18.735201 -5.666702 -4.541200
			CHANNELS 3 Xrotation Yrotation Zrotation
			JOINT newVegas:LeftLeg
			{
				OFFSET -0.021200 -31.938179 0.493100
				CHANNELS 3 Xrotation Yrotation Zrotation
				JOINT newVegas:LeftFoot
				{
					OFFSET 0.021200 -31.938179 -4.336299
					CHANNELS 3 Xrotation Yrotation Zrotation
					JOINT newVegas:LeftToeBase
					{
						OFFSET 0.943001 -26.722000 15.023500
						CHANNELS 3 Xrotation Yrotation Zrotation
						End Site
						{
							OFFSET 0.000000 30.670183 0.000000
						}
					}
				}
				JOINT newVegas:Left_PantLeg
				{
					OFFSET 0.663870 -9.044666 -1.108900
					CHANNELS 3 Xrotation Yrotation Zrotation
					End Site
					{
						OFFSET 1.415995 20.635357 0.000000
					}
				}
			}
		}
		JOINT newVegas:RightUpLeg
		{
			OFFSET -18.735201 -5.666702 -4.541200
			CHANNELS 3 Xrotation Yrotation Zrotation
			JOINT newVegas:RightLeg
			{
				OFFSET 0.018946 -31.938133 0.493100
				CHANNELS 3 Xrotation Yrotation Zrotation
				JOINT newVegas:RightFoot
				{
					OFFSET -0.018946 -31.938126 -4.336299
					CHANNELS 3 Xrotation Yrotation Zrotation
					JOINT newVegas:RightToeBase
					{
						OFFSET -0.943001 -26.722004 15.023500
						CHANNELS 3 Xrotation Yrotation Zrotation
						End Site
						{
							OFFSET 0.000000 30.670187 0.000000
						}
					}
				}
				JOINT newVegas:Right_PantLeg
				{
					OFFSET -0.661674 -9.044716 -1.108900
					CHANNELS 3 Xrotation Yrotation Zrotation
					End Site
					{
						OFFSET -1.415958 20.635269 0.000000
					}
				}
			}
		}
	}
	JOINT newVegas:Spine
	{
		OFFSET 0.000000 10.199997 -0.299500
		CHANNELS 3 Xrotation Yrotation Zrotation
		JOINT newVegas:Spine1
		{
			OFFSET 0.000000 11.900002 -1.516600
			CHANNELS 3 Xrotation Yrotation Zrotation
			JOINT newVegas:Spine2
			{
				OFFSET 0.000000 13.600006 -2.842500
				CHANNELS 3 Xrotation Yrotation Zrotation
				JOINT newVegas:Neck
				{
					OFFSET 0.000000 9.624100 -2.890100
					CHANNELS 3 Xrotation Yrotation Zrotation
					JOINT newVegas:Head
					{
						OFFSET 0.000000 14.068802 -1.351900
						CHANNELS 3 Xrotation Yrotation Zrotation
						JOINT newVegas:Hair_Back
						{
							OFFSET 0.000000 3.231903 -17.524799
							CHANNELS 3 Xrotation Yrotation Zrotation
							End Site
							{
								OFFSET 0.000000 19.849884 0.000000
							}
						}
						JOINT newVegas:Hair_Front
						{
							OFFSET 0.000000 31.260406 4.573800
							CHANNELS 3 Xrotation Yrotation Zrotation
							JOINT newVegas:Hair_Front1
							{
								OFFSET 0.000000 2.284103 11.993300
								CHANNELS 3 Xrotation Yrotation Zrotation
								JOINT newVegas:Hair_Front2
								{
									OFFSET 0.000000 2.284103 11.993300
									CHANNELS 3 Xrotation Yrotation Zrotation
									End Site
									{
										OFFSET 0.000000 12.208862 0.000000
									}
								}
							}
						}
						JOINT newVegas:Jowel
						{
							OFFSET 0.000000 -7.458206 6.864100
							CHANNELS 3 Xrotation Yrotation Zrotation
							End Site
							{
								OFFSET 0.000000 19.849884 0.000000
							}
						}
					}
				}
				JOINT newVegas:LeftShoulder
				{
					OFFSET 15.263000 10.923401 -0.547700
					CHANNELS 3 Xrotation Yrotation Zrotation
					JOINT newVegas:LeftArm
					{
						OFFSET 25.438599 -2.830597 -13.032500
						CHANNELS 3 Xrotation Yrotation Zrotation
						JOINT newVegas:LeftForeArm
						{
							OFFSET 29.960503 0.000000 0.000000
							CHANNELS 3 Xrotation Yrotation Zrotation
							JOINT newVegas:LeftHand
							{
								OFFSET 27.849251 0.000000 0.000000
								CHANNELS 3 Xrotation Yrotation Zrotation
								JOINT newVegas:LeftHandThumb1
								{
									OFFSET 4.487587 -3.305161 6.305391
									CHANNELS 3 Xrotation Yrotation Zrotation
									JOINT newVegas:LeftHandThumb2
									{
										OFFSET 5.480453 -3.164139 3.164143
										CHANNELS 3 Xrotation Yrotation Zrotation
										JOINT newVegas:LeftHandThumb3
										{
											OFFSET 5.159721 -2.978973 2.978967
											CHANNELS 3 Xrotation Yrotation Zrotation
											End Site
											{
												OFFSET 2.494507 5.926697 1.738678
											}
										}
									}
								}
								JOINT newVegas:LeftHandIndex1
								{
									OFFSET 18.578728 -0.527832 5.208049
									CHANNELS 3 Xrotation Yrotation Zrotation
									JOINT newVegas:LeftHandIndex2
									{
										OFFSET 3.192009 0.000000 0.000000
										CHANNELS 3 Xrotation Yrotation Zrotation
										JOINT newVegas:LeftHandIndex3
										{
											OFFSET 3.835129 0.000000 0.000000
											CHANNELS 3 Xrotation Yrotation Zrotation
											End Site
											{
												OFFSET -0.034599 3.816971 0.371180
											}
										}
									}
								}
								JOINT newVegas:LeftHandMiddle1
								{
									OFFSET 18.476105 0.000000 0.000000
									CHANNELS 3 Xrotation Yrotation Zrotation
									JOINT newVegas:LeftHandMiddle2
									{
										OFFSET 3.324875 0.000000 0.000000
										CHANNELS 3 Xrotation Yrotation Zrotation
										JOINT newVegas:LeftHandMiddle3
										{
											OFFSET 4.596550 0.000000 0.000000
											CHANNELS 3 Xrotation Yrotation Zrotation
											End Site
											{
												OFFSET 0.057701 4.578827 0.399218
											}
										}
									}
								}
								JOINT newVegas:LeftHandRing1
								{
									OFFSET 17.732719 0.121887 -4.201567
									CHANNELS 3 Xrotation Yrotation Zrotation
									JOINT newVegas:LeftHandRing2
									{
										OFFSET 2.733170 0.000000 0.000000
										CHANNELS 3 Xrotation Yrotation Zrotation
										JOINT newVegas:LeftHandRing3
										{
											OFFSET 3.178268 0.000000 0.000000
											CHANNELS 3 Xrotation Yrotation Zrotation
											End Site
											{
												OFFSET 0.119102 3.170624 0.185394
											}
										}
									}
								}
								JOINT newVegas:LeftHandPinky1
								{
									OFFSET 15.989624 -0.606689 -7.535461
									CHANNELS 3 Xrotation Yrotation Zrotation
									JOINT newVegas:LeftHandPinky2
									{
										OFFSET 2.538986 0.000000 0.000000
										CHANNELS 3 Xrotation Yrotation Zrotation
										JOINT newVegas:LeftHandPinky3
										{
											OFFSET 2.593102 0.000000 0.000000
											CHANNELS 3 Xrotation Yrotation Zrotation
											End Site
											{
												OFFSET -0.150902 2.584198 0.152708
											}
										}
									}
								}
							}
							JOINT newVegas:Left_Sleeve
							{
								OFFSET 0.267448 -0.649796 0.577675
								CHANNELS 3 Xrotation Yrotation Zrotation
								End Site
								{
									OFFSET 0.000000 15.991241 0.000000
								}
							}
							JOINT newVegas:Left_CapeC
							{
								OFFSET 15.715958 -8.608795 -6.935905
								CHANNELS 3 Xrotation Yrotation Zrotation
								JOINT newVegas:Left_CapeC1
								{
									OFFSET 0.000000 -8.688499 0.000000
									CHANNELS 3 Xrotation Yrotation Zrotation
									End Site
									{
										OFFSET 0.000000 8.688499 0.000000
									}
								}
							}
						}
						JOINT newVegas:Left_CapeB
						{
							OFFSET 26.118385 -8.608795 -7.079235
							CHANNELS 3 Xrotation Yrotation Zrotation
							JOINT newVegas:Left_CapeB1
							{
								OFFSET 0.000000 -8.688499 0.000000
								CHANNELS 3 Xrotation Yrotation Zrotation
								End Site
								{
									OFFSET 0.000000 8.688499 0.000000
								}
							}
						}
						JOINT newVegas:Left_CapeA
						{
							OFFSET 5.115639 -8.608795 -10.395809
							CHANNELS 3 Xrotation Yrotation Zrotation
							JOINT newVegas:Left_CapeA1
							{
								OFFSET 0.000000 -8.688499 0.000000
								CHANNELS 3 Xrotation Yrotation Zrotation
								End Site
								{
									OFFSET 0.000000 8.688499 0.000000
								}
							}
						}
					}
				}
				JOINT newVegas:RightShoulder
				{
					OFFSET -15.263000 10.923401 -0.547700
					CHANNELS 3 Xrotation Yrotation Zrotation
					JOINT newVegas:RightArm
					{
						OFFSET -25.438599 -2.830597 -13.032500
						CHANNELS 3 Xrotation Yrotation Zrotation
						JOINT newVegas:RightForeArm
						{
							OFFSET -29.960503 0.000000 0.000000
							CHANNELS 3 Xrotation Yrotation Zrotation
							JOINT newVegas:RightHand
							{
								OFFSET -27.849251 0.000000 0.000000
								CHANNELS 3 Xrotation Yrotation Zrotation
								JOINT newVegas:RightHandThumb1
								{
									OFFSET -4.487587 -3.305161 6.305391
									CHANNELS 3 Xrotation Yrotation Zrotation
									JOINT newVegas:RightHandThumb2
									{
										OFFSET -5.480453 -3.164139 3.164143
										CHANNELS 3 Xrotation Yrotation Zrotation
										JOINT newVegas:RightHandThumb3
										{
											OFFSET -5.159721 -2.978973 2.978967
											CHANNELS 3 Xrotation Yrotation Zrotation
											End Site
											{
												OFFSET -2.494507 5.926697 1.738678
											}
										}
									}
								}
								JOINT newVegas:RightHandIndex1
								{
									OFFSET -18.578728 -0.527832 5.208049
									CHANNELS 3 Xrotation Yrotation Zrotation
									JOINT newVegas:RightHandIndex2
									{
										OFFSET -3.192009 0.000000 0.000000
										CHANNELS 3 Xrotation Yrotation Zrotation
										JOINT newVegas:RightHandIndex3
										{
											OFFSET -3.835129 0.000000 0.000000
											CHANNELS 3 Xrotation Yrotation Zrotation
											End Site
											{
												OFFSET 0.034599 3.816971 0.371180
											}
										}
									}
								}
								JOINT newVegas:RightHandMiddle1
								{
									OFFSET -18.476105 0.000000 0.000000
									CHANNELS 3 Xrotation Yrotation Zrotation
									JOINT newVegas:RightHandMiddle2
									{
										OFFSET -3.324875 0.000000 0.000000
										CHANNELS 3 Xrotation Yrotation Zrotation
										JOINT newVegas:RightHandMiddle3
										{
											OFFSET -4.596550 0.000000 0.000000
											CHANNELS 3 Xrotation Yrotation Zrotation
											End Site
											{
												OFFSET -0.057701 4.578827 0.399218
											}
										}
									}
								}
								JOINT newVegas:RightHandRing1
								{
									OFFSET -17.732719 0.121887 -4.201567
									CHANNELS 3 Xrotation Yrotation Zrotation
									JOINT newVegas:RightHandRing2
									{
										OFFSET -2.733170 0.000000 0.000000
										CHANNELS 3 Xrotation Yrotation Zrotation
										JOINT newVegas:RightHandRing3
										{
											OFFSET -3.178268 0.000000 0.000000
											CHANNELS 3 Xrotation Yrotation Zrotation
											End Site
											{
												OFFSET -0.119102 3.170624 0.185394
											}
										}
									}
								}
								JOINT newVegas:RightHandPinky1
								{
									OFFSET -15.989624 -0.606689 -7.535461
									CHANNELS 3 Xrotation Yrotation Zrotation
									JOINT newVegas:RightHandPinky2
									{
										OFFSET -2.538986 0.000000 0.000000
										CHANNELS 3 Xrotation Yrotation Zrotation
										JOINT newVegas:RightHandPinky3
										{
											OFFSET -2.593102 0.000000 0.000000
											CHANNELS 3 Xrotation Yrotation Zrotation
											End Site
											{
												OFFSET 0.150902 2.584198 0.152708
											}
										}
									}
								}
							}
							JOINT newVegas:Right_CapeC
							{
								OFFSET -15.715958 -8.608795 -6.935905
								CHANNELS 3 Xrotation Yrotation Zrotation
								JOINT newVegas:Right_CapeC1
								{
									OFFSET 0.000000 -8.688499 0.000000
									CHANNELS 3 Xrotation Yrotation Zrotation
									End Site
									{
										OFFSET 0.000000 8.688499 0.000000
									}
								}
							}
							JOINT newVegas:Right_Sleeve
							{
								OFFSET -0.267448 -0.649994 0.577675
								CHANNELS 3 Xrotation Yrotation Zrotation
								End Site
								{
									OFFSET 0.000000 15.991302 0.000000
								}
							}
						}
						JOINT newVegas:Right_CapeA
						{
							OFFSET -5.115540 -8.608795 -10.395824
							CHANNELS 3 Xrotation Yrotation Zrotation
							JOINT newVegas:Right_CapeA1
							{
								OFFSET 0.000000 -8.688499 0.000000
								CHANNELS 3 Xrotation Yrotation Zrotation
								End Site
								{
									OFFSET 0.000000 8.688499 0.000000
								}
							}
						}
						JOINT newVegas:Right_CapeB
						{
							OFFSET -26.118187 -8.608795 -7.079266
							CHANNELS 3 Xrotation Yrotation Zrotation
							JOINT newVegas:Right_CapeB1
							{
								OFFSET 0.000000 -8.688499 0.000000
								CHANNELS 3 Xrotation Yrotation Zrotation
								End Site
								{
									OFFSET 0.000000 8.688499 0.000000
								}
							}
						}
					}
				}
				JOINT newVegas:Left_Collar
				{
					OFFSET 18.625099 8.655502 8.828100
					CHANNELS 3 Xrotation Yrotation Zrotation
					JOINT newVegas:Left_Collar1
					{
						OFFSET 14.783401 10.540405 -1.259500
						CHANNELS 3 Xrotation Yrotation Zrotation
						End Site
						{
							OFFSET 0.000000 18.199875 0.000000
						}
					}
				}
				JOINT newVegas:Collar_Back
				{
					OFFSET 0.000000 15.630707 -20.132601
					CHANNELS 3 Xrotation Yrotation Zrotation
					End Site
					{
						OFFSET 0.000000 22.523010 0.000000
					}
				}
				JOINT newVegas:Left_Peck
				{
					OFFSET 17.239599 -5.132599 25.482599
					CHANNELS 3 Xrotation Yrotation Zrotation
					End Site
					{
						OFFSET 0.000000 22.523010 0.000000
					}
				}
				JOINT newVegas:Right_Peck
				{
					OFFSET -17.239599 -5.132202 25.482599
					CHANNELS 3 Xrotation Yrotation Zrotation
					End Site
					{
						OFFSET 0.000000 22.523010 0.000000
					}
				}
				JOINT newVegas:Right_Collar
				{
					OFFSET -18.625099 8.655792 8.828100
					CHANNELS 3 Xrotation Yrotation Zrotation
					JOINT newVegas:Right_Collar1
					{
						OFFSET -14.783401 10.539993 -1.259500
						CHANNELS 3 Xrotation Yrotation Zrotation
						End Site
						{
							OFFSET 0.000000 18.199631 0.000000
						}
					}
				}
			}
		}
		JOINT newVegas:Belly
		{
			OFFSET 0.000000 -6.540398 9.014299
			CHANNELS 3 Xrotation Yrotation Zrotation
			End Site
			{
				OFFSET 0.000000 11.566666 0.000000
			}
		}
	}
	JOINT newVegas:ElvisFacialAnim_Joint
	{
		OFFSET 1.000000 -95.330101 -8.825800
		CHANNELS 3 Xrotation Yrotation Zrotation
		End Site
		{
			OFFSET 0.000000 35.315800 0.000000
		}
	}
}
MOTION
Frames: 4
Frame Time: 0.033333
-3.730883 81.554016 4.020996 11.960131 -51.019187 12.283320 -0.000001 -0.000001 -0.000000 -62.659343 26.449923 45.974594 42.038715 -21.245857 2.854496 4.361399 1.789276 -15.970049 -0.000000 0.000002 -0.000000 0.000001 -0.000001 -0.000000 -29.254250 1.777306 -31.250977 48.527855 5.019434 -6.499054 -26.307220 -4.950939 30.267010 -0.000000 0.000001 0.000000 0.000001 0.000000 0.000000 8.618776 2.796371 -2.061844 1.480521 5.674479 -4.268747 -10.411808 6.432480 -2.999092 2.319661 2.328657 -0.441204 2.319664 2.328631 -0.441203 0.000000 0.000001 -0.000000 2.319729 2.328645 -0.441207 2.319591 2.328628 -0.441198 0.000001 0.000002 -0.000000 0.000000 0.000001 -0.000000 -1.717347 -11.280599 -2.717420 1.554090 9.650315 -47.459843 -22.412231 -23.666102 -16.018259 4.965763 -1.783134 7.423308 18.457980 -9.513794 13.216609 -0.162893 12.546877 -8.560472 0.000001 0.000002 -0.000006 -0.621478 -3.575893 -12.021634 0.122096 -0.318079 -7.468055 -0.000005 0.000001 -0.000000 2.199241 4.886788 -24.144702 0.445155 -1.118748 -15.612315 0.000001 -0.000001 -0.000001 3.475538 7.616920 -36.336661 -0.746612 -0.700216 -22.326980 0.000004 -0.000000 -0.000003 1.019694 3.933348 -50.116527 -0.904270 -0.465060 -21.677851 0.000003 -0.000003 0.000001 -0.000000 0.000001 -0.000000 -0.000000 0.000001 -0.000000 -0.000001 0.000001 -0.000000 -0.000001 0.000000 0.000002 -0.000001 -0.000001 -0.000001 -0.000001 0.000000 0.000002 -0.000002 -0.000000 0.000001 -2.357573 21.948588 -5.106561 27.970895 -39.626391 70.356030 -23.815119 54.760092 22.198185 -0.243772 26.860506 13.997443 55.149550 18.649582 -29.698308 -0.442532 -14.180579 7.313182 0.000000 -0.000005 0.000000 5.673419 7.585002 36.844127 1.050443 3.824522 68.900278 0.000004 -0.000002 -0.000003 -0.125720 1.886097 45.000759 -1.168994 3.204675 68.417657 -0.000001 0.000000 -0.000002 -5.311986 1.216678 58.508807 -0.745212 1.667608 48.011278 -0.000001 0.000001 -0.000002 -7.756784 -9.376456 47.263990 -0.526070 1.541601 45.600549 -0.000001 0.000003 -0.000002 0.000000 -0.000002 0.000000 0.000000 -0.000003 0.000003 0.000000 -0.000002 -0.000001 0.000002 -0.000001 0.000001 0.000002 -0.000001 0.000002 0.000002 -0.000001 0.000001 0.000002 -0.000001 0.000002 0.000001 0.000002 0.000000 0.000001 0.000002 0.000000 0.000001 0.000002 0.000000 0.000001 0.000002 0.000000 0.000001 0.000002 0.000000 0.000001 0.000002 0.000000 0.000001 0.000002 0.000000 -0.000000 -0.000002 0.000001 -0.000001 -0.000001 -0.000000 
-3.720492 81.326576 3.940193 11.892671 -50.743746 12.278424 -0.000000 -0.000000 -0.000000 -63.104726 26.166791 45.965336 42.570827 -21.355155 2.884939 4.359764 1.708903 -15.868561 -0.000000 -0.000002 0.000000 -0.000000 -0.000001 0.000001 -29.479090 1.954838 -31.301968 49.445119 4.910190 -6.617372 -26.812686 -5.191389 30.330490 0.000000 -0.000001 -0.000000 -0.000002 0.000000 0.000003 8.757274 2.765822 -2.065804 1.669650 5.644418 -4.265480 -10.224815 6.402321 -3.013154 2.039112 2.310306 -0.506853 2.039117 2.310300 -0.506852 0.000000 -0.000001 0.000001 2.039184 2.310289 -0.506855 2.039043 2.310290 -0.506850 -0.000001 -0.000003 0.000001 0.000000 -0.000001 0.000001 -1.754199 -11.221203 -2.965813 0.780389 9.473962 -47.025883 -22.475608 -23.980041 -15.949421 4.548377 -1.841625 7.483984 18.457982 -9.513797 13.216611 -0.203483 12.493051 -8.553201 0.000002 0.000001 -0.000003 -0.663697 -3.670297 -11.529983 0.122705 -0.313546 -7.351687 -0.000002 -0.000002 0.000001 2.167157 4.866751 -23.349031 0.445896 -1.114557 -15.514368 0.000005 -0.000003 0.000001 3.439270 7.614650 -35.437074 -0.744653 -0.695383 -22.193791 0.000000 -0.000000 -0.000003 1.080754 3.981213 -49.023334 -0.901918 -0.457937 -21.474149 0.000001 -0.000005 0.000001 0.000002 -0.000003 0.000002 0.000002 -0.000003 0.000002 0.000001 -0.000003 0.000002 -0.000001 -0.000002 0.000006 -0.000000 -0.000002 0.000003 -0.000001 -0.000002 0.000006 -0.000001 -0.000001 0.000006 -2.627687 21.879790 -4.259673 27.091500 -40.017218 68.992984 -24.182292 55.485933 22.606159 -0.676725 26.927321 13.854258 55.149543 18.649582 -29.698308 -0.442529 -14.180578 7.313183 -0.000002 -0.000001 0.000001 5.673420 7.585000 36.844134 1.050446 3.824516 68.900278 -0.000002 -0.000002 0.000002 -0.125719 1.886094 45.000759 -1.168993 3.204671 68.417663 -0.000003 -0.000002 -0.000000 -5.311983 1.216668 58.508807 -0.745214 1.667600 48.011278 -0.000001 -0.000001 0.000003 -7.756789 -9.376455 47.263994 -0.526070 1.541596 45.600546 0.000001 0.000003 -0.000001 -0.000000 -0.000003 0.000002 -0.000000 -0.000001 0.000003 -0.000000 -0.000003 0.000002 -0.000001 0.000003 0.000001 0.000000 0.000003 0.000002 -0.000001 0.000003 0.000001 0.000000 0.000003 0.000002 0.000000 -0.000001 0.000000 0.000000 -0.000001 0.000000 0.000000 -0.000001 0.000000 0.000000 -0.000001 0.000000 0.000000 -0.000001 0.000000 0.000000 -0.000001 0.000000 0.000000 -0.000001 0.000000 -0.000000 -0.000002 0.000001 -0.000000 -0.000000 -0.000000 
-3.715136 81.089890 3.866662 11.745963 -50.436719 12.177882 0.000000 0.000000 -0.000000 -63.580756 25.838556 45.992090 43.172444 -21.497382 2.918664 4.347340 1.607658 -15.742532 0.000000 0.000000 -0.000000 -0.000000 0.000002 -0.000001 -29.649407 2.107256 -31.363003 50.358332 4.847179 -6.657706 -27.277206 -5.395354 30.339547 -0.000000 0.000000 0.000000 -0.000002 0.000001 -0.000000 8.942663 2.733523 -2.044885 1.897763 5.593066 -4.235368 -9.994039 6.343379 -3.009476 1.753069 2.274815 -0.583017 1.753075 2.274830 -0.583020 -0.000000 0.000000 -0.000000 1.753140 2.274828 -0.583021 1.752994 2.274858 -0.583021 0.000000 0.000001 -0.000000 -0.000000 0.000000 -0.000000 -1.802619 -11.212160 -3.277945 -0.193111 9.213926 -46.516911 -22.515500 -24.144070 -15.852502 4.341035 -1.903786 7.516086 18.457994 -9.513794 13.216616 -0.251947 12.428858 -8.544589 0.000002 -0.000003 -0.000001 -0.711457 -3.781649 -10.937685 0.123362 -0.308004 -7.211145 -0.000002 0.000000 0.000000 2.131213 4.844304 -22.393675 0.446860 -1.109396 -15.395774 0.000000 0.000000 0.000001 3.398210 7.613464 -34.358051 -0.742270 -0.689541 -22.033632 -0.000003 -0.000000 -0.000002 1.152995 4.043982 -47.711255 -0.898951 -0.449310 -21.230608 -0.000003 -0.000005 0.000002 0.000001 -0.000000 0.000001 0.000001 -0.000000 0.000001 0.000000 -0.000000 0.000001 0.000001 -0.000002 -0.000001 0.000002 -0.000001 -0.000003 0.000001 -0.000002 -0.000001 0.000001 -0.000001 -0.000001 -2.841355 21.871133 -3.592276 25.941723 -40.350849 67.708758 -24.424777 56.098253 22.815198 -1.043148 26.953824 13.730590 55.149543 18.649582 -29.698305 -0.442533 -14.180583 7.313183 0.000001 -0.000003 0.000001 5.673414 7.585002 36.844130 1.050445 3.824515 68.900278 0.000001 -0.000001 -0.000001 -0.125725 1.886096 45.000759 -1.168993 3.204669 68.417663 0.000003 0.000000 -0.000000 -5.311987 1.216671 58.508814 -0.745213 1.667604 48.011278 0.000004 0.000001 -0.000001 -7.756787 -9.376458 47.263994 -0.526070 1.541601 45.600549 0.000000 0.000002 -0.000002 0.000002 -0.000000 0.000001 0.000003 0.000000 0.000002 0.000002 -0.000001 -0.000001 0.000000 0.000003 0.000001 0.000001 0.000003 0.000002 0.000000 0.000003 0.000001 0.000001 0.000003 0.000002 -0.000000 0.000000 -0.000001 -0.000000 0.000000 -0.000001 -0.000000 0.000000 -0.000001 -0.000000 0.000000 -0.000001 -0.000000 0.000000 -0.000001 -0.000000 0.000000 -0.000001 -0.000000 0.000000 -0.000001 -0.000000 -0.000002 -0.000000 0.000000 0.000000 -0.000000 
-3.726899 80.854973 3.802914 11.572609 -50.183941 12.087350 0.000000 -0.000003 0.000000 -63.974004 25.550947 46.028440 43.762822 -21.626240 2.951581 4.301323 1.528949 -15.644772 0.000000 0.000000 0.000000 -0.000001 0.000001 0.000000 -29.935234 2.108568 -31.574527 51.281303 4.949532 -6.664441 -27.698603 -5.463352 30.288798 -0.000000 0.000001 0.000000 0.000003 -0.000001 0.000003 9.124460 2.719969 -2.040890 2.185472 5.540819 -4.225211 -9.706492 6.288739 -3.005223 1.462635 2.227907 -0.667330 1.462642 2.227899 -0.667332 0.000000 0.000001 -0.000000 1.462703 2.227930 -0.667337 1.462568 2.227863 -0.667320 0.000000 -0.000002 0.000000 0.000000 0.000001 -0.000000 -1.871079 -11.438893 -3.664041 -1.076406 9.075155 -45.777130 -22.551850 -24.323904 -15.971955 4.090970 -2.065718 7.598750 18.457985 -9.513794 13.216612 -0.306918 12.356026 -8.534885 0.000001 0.000001 -0.000003 -0.762490 -3.907523 -10.263525 0.124172 -0.301776 -7.050879 0.000000 -0.000001 0.000003 2.093257 4.820076 -21.306690 0.447933 -1.103396 -15.260048 -0.000000 0.000002 0.000001 3.354362 7.613988 -33.130874 -0.739615 -0.682952 -21.851218 0.000005 0.000001 0.000001 1.233621 4.122261 -46.218381 -0.895556 -0.439376 -20.954191 -0.000001 -0.000002 0.000000 -0.000000 0.000000 0.000001 -0.000000 0.000000 0.000001 -0.000001 0.000001 0.000001 0.000002 -0.000003 0.000002 0.000002 -0.000003 -0.000001 0.000002 -0.000003 0.000002 0.000001 -0.000003 0.000001 -2.930546 21.786029 -3.277338 24.508478 -40.345548 66.685179 -24.454152 56.322259 22.789461 -1.204107 27.173636 13.497997 55.149543 18.649581 -29.698308 -0.442532 -14.180582 7.313182 -0.000002 -0.000002 -0.000003 5.673418 7.585000 36.844130 1.050447 3.824522 68.900278 -0.000000 0.000001 0.000002 -0.125721 1.886095 45.000753 -1.168993 3.204673 68.417657 0.000001 0.000001 -0.000000 -5.311985 1.216674 58.508814 -0.745211 1.667603 48.011275 0.000003 -0.000001 -0.000002 -7.756782 -9.376455 47.263994 -0.526070 1.541600 45.600542 -0.000001 0.000002 0.000000 0.000003 -0.000003 0.000003 0.000003 -0.000003 0.000002 0.000003 -0.000003 0.000001 -0.000001 -0.000002 -0.000000 -0.000001 -0.000001 0.000001 -0.000001 -0.000002 -0.000000 -0.000001 -0.000001 0.000001 0.000000 0.000001 -0.000000 0.000000 0.000001 -0.000000 0.000000 0.000001 -0.000000 0.000000 0.000001 -0.000000 0.000000 0.000001 -0.000000 0.000000 0.000001 -0.000000 0.000000 0.000001 -0.000000 0.000000 -0.000001 0.000000 0.000000 -0.000003 0.000000 
